name C:\Users\u0101727\Documents\MyRepositories\paper-ad\predictivesimulations_2d/Results/PredSim_2D/IK_c4.mot
datacolumns 11
datarows 25
range 0.13200000 0.18000000
endheader
time	pelvis_tilt	pelvis_tx	pelvis_ty	hip_flexion_l	hip_flexion_r	knee_angle_l	knee_angle_r	ankle_angle_l	ankle_angle_r	lumbar_extension	
          0.13200000	        -29.99854742	          0.17901884	          0.92450715	         33.66238836	         33.67966889	        -84.48471500	        -84.48135650	         16.23639950	         16.15883901	          3.60507664	
          0.13400000	        -29.99208755	          0.18191290	          0.92458230	         33.59974074	         33.61420325	        -84.48360996	        -84.47768013	         16.15476729	         16.07261391	          3.65021491	
          0.13600000	        -29.98084501	          0.18478529	          0.92466428	         33.53805011	         33.54961176	        -84.48347515	        -84.47499019	         16.07661870	         15.98947145	          3.68389411	
          0.13800000	        -29.96528189	          0.18763324	          0.92475145	         33.47837861	         33.48697702	        -84.48436696	        -84.47334008	         16.00552839	         15.91284627	          3.70611426	
          0.14000000	        -29.94582960	          0.19045419	          0.92484136	         33.42169947	         33.42729250	        -84.48634945	        -84.47280322	         15.94568165	         15.84694751	          3.71687536	
          0.14200000	        -29.92288502	          0.19324577	          0.92493160	         33.36893273	         33.37149795	        -84.48949803	        -84.47346068	         15.89994760	         15.79480259	          3.71617740	
          0.14400000	        -29.89679192	          0.19600596	          0.92502096	         33.32087385	         33.32040437	        -84.49376851	        -84.47526632	         15.86959871	         15.75782902	          3.70402038	
          0.14600000	        -29.86786580	          0.19873290	          0.92510760	         33.27828767	         33.27479541	        -84.49916188	        -84.47822810	         15.85474680	         15.73634910	          3.68040431	
          0.14800000	        -29.83638967	          0.20142495	          0.92519028	         33.24183997	         33.23535150	        -84.50556374	        -84.48222234	         15.85495373	         15.73022273	          3.64532918	
          0.15000000	        -29.80260684	          0.20408077	          0.92526931	         33.21207201	         33.20262007	        -84.51276772	        -84.48703015	         15.87003698	         15.73955778	          3.59879498	
          0.15200000	        -29.76663544	          0.20669968	          0.92534288	         33.18924511	         33.17689640	        -84.52068095	        -84.49254366	         15.89916049	         15.76409709	          3.54080173	
          0.15400000	        -29.72850233	          0.20928150	          0.92540933	         33.17347512	         33.15830470	        -84.52941497	        -84.49884405	         15.94076908	         15.80319626	          3.47134944	
          0.15600000	        -29.68821326	          0.21182600	          0.92546948	         33.16497454	         33.14701812	        -84.53947351	        -84.50641861	         15.99298330	         15.85522450	          3.39043811	
          0.15800000	        -29.64571863	          0.21433327	          0.92552509	         33.16387009	         33.14311677	        -84.55148508	        -84.51588283	         16.05344321	         15.91798138	          3.29806772	
          0.16000000	        -29.60062768	          0.21680549	          0.92557563	         33.16938837	         33.14577673	        -84.56573627	        -84.52750857	         16.11841978	         15.98777243	          3.19423830	
          0.16200000	        -29.55198893	          0.21924844	          0.92562078	         33.17915285	         33.15254969	        -84.58175568	        -84.54081020	         16.18467926	         16.06217375	          3.07894989	
          0.16400000	        -29.49852649	          0.22167006	          0.92565952	         33.18982995	         33.16011064	        -84.59852619	        -84.55482357	         16.24761038	         16.13652322	          2.95221847	
          0.16600000	        -29.44233551	          0.22407545	          0.92568943	         33.20203569	         33.16926963	        -84.61537907	        -84.56908127	         16.30621840	         16.20783611	          2.81802817	
          0.16800000	        -29.38920980	          0.22646564	          0.92570767	         33.22110505	         33.18550758	        -84.63235509	        -84.58379992	         16.36224231	         16.27758514	          2.68452353	
          0.17000000	        -29.34443325	          0.22884180	          0.92571281	         33.25188660	         33.21377420	        -84.64948898	        -84.59912107	         16.41624356	         16.34613530	          2.55917700	
          0.17200000	        -29.30971822	          0.23120828	          0.92570406	         33.29480428	         33.25460099	        -84.66629486	        -84.61461719	         16.47003950	         16.41348062	          2.44528704	
          0.17400000	        -29.28397785	          0.23357179	          0.92568141	         33.34695610	         33.30513759	        -84.68198341	        -84.62951645	         16.52296144	         16.47796818	          2.34285599	
          0.17600000	        -29.26619105	          0.23593854	          0.92564469	         33.40565528	         33.36272583	        -84.69600354	        -84.64326405	         16.57524319	         16.53891231	          2.25188394	
          0.17800000	        -29.25539764	          0.23831434	          0.92559493	         33.46842066	         33.42485127	        -84.70792160	        -84.65536989	         16.62689869	         16.59582024	          2.17237093	
          0.18000000	        -29.25076009	          0.24070424	          0.92553413	         33.53313720	         33.48937442	        -84.71745058	        -84.66551872	         16.67662345	         16.64747537	          2.10431697	
